<?xml version="1.0" encoding="UTF-8" standalone="no"?>
<svg
   xmlns:dc="http://purl.org/dc/elements/1.1/"
   xmlns:cc="http://creativecommons.org/ns#"
   xmlns:rdf="http://www.w3.org/1999/02/22-rdf-syntax-ns#"
   xmlns:svg="http://www.w3.org/2000/svg"
   xmlns="http://www.w3.org/2000/svg"
   xmlns:sodipodi="http://sodipodi.sourceforge.net/DTD/sodipodi-0.dtd"
   xmlns:inkscape="http://www.inkscape.org/namespaces/inkscape"
   id="-globe"
   style="isolation:isolate"
   viewBox="353.5 148.5 465.876 425"
   height="360"
   version="1.1"
   sodipodi:docname="globe.svg"
   inkscape:version="0.92.4 (unknown)">
  <metadata
     id="metadata877">
    <rdf:RDF>
      <cc:Work
         rdf:about="">
        <dc:format>image/svg+xml</dc:format>
        <dc:type
           rdf:resource="http://purl.org/dc/dcmitype/StillImage" />
      </cc:Work>
    </rdf:RDF>
  </metadata>
  <sodipodi:namedview
     pagecolor="#ffffff"
     bordercolor="#666666"
     borderopacity="1"
     objecttolerance="10"
     gridtolerance="10"
     guidetolerance="10"
     inkscape:pageopacity="0"
     inkscape:pageshadow="2"
     inkscape:window-width="3840"
     inkscape:window-height="2089"
     id="namedview875"
     showgrid="false"
     inkscape:zoom="13.30775"
     inkscape:cx="392.87624"
     inkscape:cy="154.49257"
     inkscape:window-x="0"
     inkscape:window-y="34"
     inkscape:window-maximized="1"
     inkscape:current-layer="-globe" />
  <defs
     id="defs818">
    <clipPath
       id="_clipPath_VwB5La2kLUJUBOhzjLbGqfCcWRBXHReF">
      <rect
         x="353.5"
         y="148.5"
         width="465.876"
         height="425"
         id="rect815" />
    </clipPath>
    <style
       id="style1776">.cls-1{fill:#353535;}.cls-2{fill:#38586c;}.cls-3{fill:#fff;}.cls-4{fill:#d5c5b7;}</style>
  </defs>
  <g
     style="stroke:#000000;stroke-width:1.2;stroke-miterlimit:3;stroke-dasharray:none;stroke-opacity:1"
     id="g824">
    <path
       sodipodi:nodetypes="cccccccccccccccccccccccc"
       d="m 817.876,425.01 c 0,0 -1.645,4.677 -3.887,-3.994 -0.89,-3.441 -2.208,-6.089 -4.484,-8.267 -4.688,-4.486 -15.597,-2.471 -14.606,-2.045 1.946,0.836 0.49,2.172 0.516,-1.892 0.057,-8.88 -1.54,-15.194 -4.919,-19.024 -1.419,-1.609 -5.663,-5.041 -7.541,-3.239 -5.15,4.943 1.68,2.695 -2.222,-7.295 -0.804,-2.06 -5.357,-6.563 -7.283,-4.185 -5.052,6.238 -1.664,-3.246 -7.283,-4.185 -2.848,-0.476 -4.176,1.392 -6.073,3.734 -4.272,5.275 -0.475,6.404 -5.815,2.788 -7.048,-4.773 -10.431,5.048 -10.917,12.223 -1.31,19.338 2.595,12.234 -3.057,5.029 -1.2,-1.531 -9.301,-2.884 -8.831,1.492 0.496,4.621 0.256,7.092 -0.061,9.486 l -4.008,-3.835 c -0.51,3.849 0.955,7.925 0.177,11.703 -0.24,1.163 -2.228,1.904 -2.779,0.92 -7.443,-13.298 -46.147,0.686 -46.896,2.057 -10.087,18.47 -19.255,17.098 -22.031,15.906 v 0 c 7.138,13.331 48.049,4.197 60.412,4.521 45.204,1.185 95.291,7.143 101.588,-11.898"
       stroke-miterlimit="3"
       id="path822"
       inkscape:connector-curvature="0"
       style="fill:none;stroke:#000000;stroke-width:1.2;stroke-linecap:square;stroke-linejoin:miter;stroke-miterlimit:3;stroke-dasharray:none;stroke-opacity:1" />
  </g>
  <g
     id="g832"
     transform="translate(152.97477,-101.87673)"
     style="stroke-width:1.2;stroke-miterlimit:3;stroke-dasharray:none;stroke:#000000;stroke-opacity:1">
    <path
       d="m 366.11753,372.58245 c 9.845,-4.256 15.861,-1.66 13.048,-10.331 -1.116,-3.441 -2.77,-6.089 -5.625,-8.267 -5.882,-4.485 -19.569,-2.47 -18.326,-2.045 2.442,0.836 0.615,2.172 0.648,-1.892 0.071,-8.879 -1.932,-15.194 -6.172,-19.024 -1.781,-1.608 -7.105,-5.041 -9.461,-3.238 -6.461,4.942 2.108,2.695 -2.788,-7.296 -1.009,-2.06 -6.721,-6.562 -9.137,-4.185 -6.339,6.238 -2.087,-3.245 -9.137,-4.184 -3.574,-0.476 -5.239,1.391 -7.62,3.733 -5.36,5.275 2.23554,3.51299 -5.06046,6.30099 -21.63136,-5.81493 -7.52151,11.20756 -19.76654,13.73901 -1.507,-1.531 -11.67,-2.884 -11.081,1.492 0.622,4.621 0.322,7.093 -0.076,9.487 l -3.75155,0.63508 c -0.64,3.849 -0.0785,3.45492 -1.05545,7.23192 -0.301,1.163 -2.795,1.904 -3.486,0.921 -15.72526,4.26595 2.78193,8.03034 -30.09435,9.72071 -13.61409,8.25039 -27.03226,10.07202 -30.51426,8.88002 l 6.56061,5.6658 c 14.32453,4.65575 22.623,-0.56853 36.804,0.15347 51.849,2.638 109.437,9.317 116.091,-5.843"
       stroke-miterlimit="3"
       id="path830"
       inkscape:connector-curvature="0"
       style="fill:none;stroke:#000000;stroke-width:1.2;stroke-linecap:square;stroke-linejoin:miter;stroke-miterlimit:3;stroke-dasharray:none;stroke-opacity:1"
       sodipodi:nodetypes="ccccccccccccccccccccccc" />
  </g>
  <g
     id="g838"
     style="stroke-width:1.2;stroke-miterlimit:3;stroke-dasharray:none;stroke:#000000;stroke-opacity:1">
    <path
       style="fill:none;stroke:#000000;stroke-width:1.2;stroke-linecap:square;stroke-linejoin:miter;stroke-miterlimit:3;stroke-dasharray:none;stroke-opacity:1"
       inkscape:connector-curvature="0"
       id="path836"
       stroke-miterlimit="3"
       d="m 375.206,478.9 c -9.845,-4.256 -2.813,4.677 0,-3.994 1.116,-3.441 2.77,-6.09 5.626,-8.267 5.881,-4.486 19.568,-2.471 18.325,-2.045 -2.442,0.835 -0.615,2.172 -0.648,-1.892 -0.071,-8.88 1.932,-15.194 6.172,-19.024 1.781,-1.609 7.105,-5.041 9.461,-3.239 6.461,4.942 -2.108,2.695 2.788,-7.296 1.009,-2.059 6.721,-6.562 9.137,-4.184 6.339,6.238 2.088,-3.246 9.137,-4.185 3.574,-0.476 5.239,1.391 7.62,3.734 5.36,5.275 0.596,6.404 7.296,2.787 8.842,-4.772 13.086,5.049 13.696,12.223 1.644,19.339 -3.255,12.235 3.836,5.029 1.506,-1.53 11.669,-2.883 11.08,1.493 -0.622,4.621 -0.322,7.092 0.076,9.486 0,0 5.029,-3.835 5.029,-3.835 0.64,3.849 -1.199,7.925 -0.222,11.702 0.301,1.164 2.795,1.905 3.486,0.921 9.338,-13.298 57.897,0.686 58.837,2.057 12.656,18.47 24.158,17.098 27.64,15.906 l 0.349,-3.015 c -8.954,13.331 -5.59,8.727 -9.513,14.058 -8.31,11.292 -16.592,6.371 -27.637,3.697 -13.495,-6.076 -23.481,-10.543 -38.992,-10.219 -56.715,1.184 -119.556,7.143 -127.456,-11.898" />
  </g>
  <path
     style="fill:#ffffff;stroke:#000000;stroke-width:1.2;stroke-linecap:square;stroke-linejoin:miter;stroke-miterlimit:3;stroke-dasharray:none"
     inkscape:connector-curvature="0"
     id="path840"
     stroke-miterlimit="3"
     d="m 442.74176,364.46706 c 9.039,-44.817 28.62124,-84.72606 72.48024,-107.31406 16.406,-8.45 37.323,-15.6 55.713,-18.062 73.801,-9.878 149.7257,58.32688 156.62865,129.04323 -5.622,70.64 -45.20559,160.47306 -145.43453,158.79988 C 480.25206,516.804 438.27676,448.86606 442.74176,364.46706 Z"
     sodipodi:nodetypes="cccccc" />
  <text
     id="text842"
     style="font-style:normal;font-weight:400;font-size:12px;font-family:'Alegreya Sans';fill:#000000;stroke:none"
     x="421.49707"
     y="470.56479">Azure</text>
  <g
     id="g1894"
     style="stroke-width:1.2;stroke-miterlimit:3;stroke-dasharray:none">
    <path
       d="m 520.233,197.454 c -0.248,-0.413 -7.457,-14 -4,-14 1.202,0 9.049,7.287 10,8 10.383,6.23 26.004,22 7,22 q -9.065,-9.442 -13,-16 z"
       stroke-miterlimit="3"
       id="path844"
       inkscape:connector-curvature="0"
       style="fill:#ffffff;stroke:#000000;stroke-width:1.2;stroke-linecap:square;stroke-linejoin:miter;stroke-miterlimit:3;stroke-dasharray:none;stroke-opacity:1" />
    <path
       d="M 540.807,245 573,239 c 3.428,-9.661 4.406,-19.932 6,-30 0.145,-0.914 2.193,-8.106 0.945,-8.141 -6.518,-0.182 -23.198,15.104 -26.727,17.432 C 532.304,232.083 512.303,243.778 487,245 c -0.462,0.022 4.364,7.538 4.91,8.077 6.44,6.351 11.703,9.923 14.09,9.923 v 0 z"
       stroke-miterlimit="3"
       id="path846"
       inkscape:connector-curvature="0"
       style="fill:#ffffff;stroke:#000000;stroke-width:1.2;stroke-linecap:square;stroke-linejoin:miter;stroke-miterlimit:3;stroke-dasharray:none;stroke-opacity:1" />
    <path
       d="m 494.286,164.979 c 4.571,5.39 12.307,16.113 19.292,26.451 8.255,12.219 15.46,23.901 15.149,25.606 -2.49,13.622 -22.741,20.841 -26.415,8.709 l -1.585,-26.14 q -6.441,-34.626 -6.441,-34.626 z"
       stroke-miterlimit="3"
       id="path848"
       inkscape:connector-curvature="0"
       style="fill:#ffffff;stroke:#000000;stroke-width:1.2;stroke-linecap:square;stroke-linejoin:miter;stroke-miterlimit:3;stroke-dasharray:none;stroke-opacity:1" />
  </g>
  <g
     id="g1900"
     style="stroke-width:1.2;stroke-miterlimit:3;stroke-dasharray:none">
    <path
       d="m 716,348 c 26.582,-6.604 12.539,-0.692 22,13.5 0,2.351 6.584,20 3,20 -1.631,0 -0.559,-5.779 -5,-8 -2.278,-1.139 -11.442,2.721 -16,5 -2.09,1.045 -3,-30 -4,-30.5 z"
       stroke-miterlimit="3"
       id="path856"
       inkscape:connector-curvature="0"
       style="fill:#ffffff;stroke:#000000;stroke-width:1.2;stroke-linecap:square;stroke-linejoin:miter;stroke-miterlimit:3;stroke-dasharray:none;stroke-opacity:1" />
    <path
       d="m 716,440.5 c -3.555,-1.338 -1.529,-10.038 -8,-12.5 19.699,-3.821 23.295,-7.116 28,7 2.352,3.43 -7.493,10.19 -20,5.5 q -5.445,-2.042 -8,-12.5 c 5.241,-6.429 2.035,-30.101 10,-41.5 v 0 c 8.181,-6.937 17.29,-2.461 20,0 4.422,4.017 -0.595,11.622 2,22 0,10.009 -3.471,24.268 -4,28.5"
       stroke-miterlimit="3"
       id="path858"
       inkscape:connector-curvature="0"
       style="fill:#ffffff;stroke:#000000;stroke-width:1.2;stroke-linecap:square;stroke-linejoin:miter;stroke-miterlimit:3;stroke-dasharray:none;stroke-opacity:1" />
    <path
       d="m 671,491 c 16.541,2.703 28,5.705 28,19 0,9.742 -12.489,3.997 -21.651,0 -2.457,-1.072 -4.675,-4.5 -6.349,-4.5 -2.836,0 4.502,6.126 22.013,8.5 q 3.259,0.442 6.987,-4 c 8.057,-11.967 26.258,-42.274 29,-50.5 v 0 c 1.692,-12.904 2.556,-22.852 -9,-19 -4.205,0 -17.765,-1.235 -20,1 -6.244,6.244 -11.227,20.302 -17,28 -4.844,6.459 -9.6,19.58 -12,21.5"
       stroke-miterlimit="3"
       id="path860"
       inkscape:connector-curvature="0"
       style="fill:#ffffff;stroke:#000000;stroke-width:1.2;stroke-linecap:square;stroke-linejoin:miter;stroke-miterlimit:3;stroke-dasharray:none;stroke-opacity:1" />
    <path
       d="m 712.99542,321.74118 c 8.02031,9.48876 15.82631,18.55445 6.47076,17.41239 -3.03628,-3.8795 -2.91472,-11.14732 -6.47076,-17.41239 z"
       stroke-miterlimit="3"
       id="path862"
       inkscape:connector-curvature="0"
       style="fill:#ffffff;stroke:#000000;stroke-width:1.2;stroke-linecap:square;stroke-linejoin:miter;stroke-miterlimit:3;stroke-dasharray:none;stroke-opacity:1" />
  </g>
  <text
     id="text864"
     style="font-style:normal;font-weight:400;font-size:12px;font-family:'Alegreya Sans';fill:#000000;stroke:none"
     x="453.78601"
     y="257.23401">AWS</text>
  <text
     id="text866"
     style="font-style:normal;font-weight:400;font-size:12px;font-family:'Alegreya Sans';fill:#000000;stroke:none"
     x="750"
     y="419.05801">Google</text>
  <circle
     style="fill:#f08275;fill-opacity:1;stroke:none;stroke-width:1.2"
     id="path913"
     cx="583.92126"
     cy="379.02716"
     r="65.714661" />
  <path
     style="fill:#f08275;fill-opacity:1;stroke:none;stroke-width:1.2;stroke-linecap:butt;stroke-linejoin:miter;stroke-opacity:1"
     d="m 536.49827,256.85658 3.38736,34.09937 7.90382,-5.64559 11.96865,33.19607 9.93624,-3.38736 -14.00106,-34.77684 10.16206,-6.54888 z"
     id="path915"
     inkscape:connector-curvature="0" />
  <path
     style="fill:#f08275;fill-opacity:1;stroke:none;stroke-width:1.2;stroke-linecap:butt;stroke-linejoin:miter;stroke-opacity:1"
     d="m 516.62579,465.51758 -7.00052,-7.00052 -11.29118,31.84112 32.51859,-9.48459 -7.678,-8.35547 34.09937,-43.58396 -8.35548,-7.22636 z"
     id="path917"
     inkscape:connector-curvature="0" />
  <path
     style="fill:#f08275;fill-opacity:1;stroke:none;stroke-width:1.2;stroke-linecap:butt;stroke-linejoin:miter;stroke-opacity:1"
     d="m 678.76714,403.19027 3.38734,-10.38788 24.16314,23.93729 -32.97025,6.09724 2.93571,-9.48458 -35.00266,-14.00107 3.839,-9.03295 z"
     id="path919"
     inkscape:connector-curvature="0" />
  <text
     id="text870"
     style="font-style:normal;font-weight:800;font-size:27.69607925px;font-family:'Alegreya Sans';fill:#ffffff;fill-opacity:1;stroke:#090c11;stroke-width:0;stroke-miterlimit:4;stroke-dasharray:none;stroke-opacity:1"
     x="537.83807"
     y="387.13776">Skupper</text>
  <g
     id="g1909"
     style="stroke-width:1.2;stroke-miterlimit:3;stroke-dasharray:none">
    <path
       sodipodi:nodetypes="ccccccccccsc"
       inkscape:connector-curvature="0"
       id="path1824"
       d="m 503.4132,495.57548 c -4.90968,0.88636 -5.76268,0.30018 -7.82439,0.79841 -0.2525,0.69608 -1.35404,2.95272 -1.67665,2.23554 -0.5867,-1.05713 0.0304,-0.11268 -0.71856,0.15968 -0.86359,1.45978 -1.65628,4.17543 -2.26982,4.96804 -2.02844,2.54534 -3.63806,5.22893 -6.70032,6.94757 -0.88406,0.97808 -2.73831,2.5722 -3.48502,3.09444 -1.93612,2.7478 -3.37503,3.40809 -4.47107,5.74853 -1.3322,1.2428 -2.90645,4.12821 -4.20593,5.83551 -2.0545,1.58724 -3.52864,4.24532 -4.89591,5.50187 -1.45372,2.29338 -0.58522,0.88848 -1.69788,2.24772 -2.19226,2.67809 -5.76448,4.79713 -7.62352,7.41301"
       style="fill:#ffffff;fill-opacity:0.97560975;stroke:#000000;stroke-width:1.2;stroke-miterlimit:3;stroke-dasharray:none;stroke-opacity:1" />
    <path
       style="fill:#ffffff;fill-opacity:1;stroke:#000000;stroke-width:1.2;stroke-miterlimit:3;stroke-dasharray:none;stroke-opacity:1"
       d="m 521.61689,511.54362 c -2.85874,3.55305 -4.51095,7.80499 -6.46404,11.8305 -2.51428,4.22893 -4.19689,8.90301 -7.43124,12.68841 -4.66526,7.49919 -9.65634,14.84082 -13.65296,22.72855 -3.00333,2.83864 -3.79163,7.96948 -6.46282,10.39251 -2.70805,-2.58736 -5.53073,-5.65368 -8.94532,-7.52948 -3.85156,-2.48393 -8.39497,-5.70156 -12.62922,-7.67905 -2.56286,-2.38957 2.03945,-5.51692 5.46799,-8.74169 2.04763,-3.46386 4.71364,-7.54687 7.24612,-10.72375 5.02773,-8.26109 11.94761,-15.33701 15.77801,-24.32777 2.86129,-4.64139 4.76522,-9.84551 8.533,-13.88938 3.87458,-3.63177 7.15809,4.60623 10.48632,6.82913 3.1947,2.94976 5.00452,5.47657 8.07416,8.42202 z"
       id="path1822"
       inkscape:connector-curvature="0"
       sodipodi:nodetypes="ccccccccccccc" />
    <path
       style="fill:none;stroke:#000000;stroke-width:1.2;stroke-miterlimit:3;stroke-dasharray:none;stroke-opacity:1"
       d="m 466.03129,553.97506 c -1.11554,-1.4388 -1.45504,-3.27516 -2.22974,-4.8899 -0.79183,-1.61961 -2.00991,-2.58956 -2.76203,-4.07874 -0.5251,-0.65229 -1.2171,-1.19526 -1.51141,-2.0066 -0.45289,-0.87961 -0.78189,-1.94572 -1.68392,-2.474"
       id="path1826"
       inkscape:connector-curvature="0"
       sodipodi:nodetypes="ccccc" />
    <path
       sodipodi:nodetypes="ccccccccc"
       inkscape:connector-curvature="0"
       id="path1830"
       d="m 453.58152,504.47864 c -1.77147,-1.36081 -3.15995,-5.33888 -4.90689,-6.75586 -1.08863,-1.65176 -2.46752,-3.22703 -2.83983,-5.23003 -0.75372,-0.78385 -1.44004,-1.91341 0.043,-2.25595 1.81086,-1.36036 3.53879,-2.81584 5.0768,-4.48001 2.08576,-2.0557 4.21408,-4.33104 7.11522,-5.17656 2.07255,-1.67318 4.59825,-2.77965 6.38114,-4.80524 2.0979,-0.71592 4.6941,-3.10697 6.52494,-4.05472 2.91023,4.00511 8.05208,6.97651 11.08132,8.98769"
       style="fill:#ffffff;fill-opacity:1;stroke:#000000;stroke-width:1.2;stroke-miterlimit:3;stroke-dasharray:none;stroke-opacity:1" />
    <path
       style="fill:#ffffff;fill-opacity:1;stroke:#000000;stroke-width:1.2;stroke-miterlimit:3;stroke-dasharray:none;stroke-opacity:1"
       d="m 526.40733,511.22426 c 0.0622,3.2222 -2.33219,5.75952 -2.92514,8.82994 -0.9916,2.68545 -2.28226,5.25639 -3.13348,7.99423 -2.15048,2.03527 -0.87591,5.01765 1.45265,6.14717 2.97583,2.78628 7.14845,4.0765 9.63101,7.32986 1.31645,1.53089 6.49753,5.92861 7.53289,7.67099 4.28759,-1.61716 6.82606,-2.72328 11.41425,-3.26216 4.47946,-0.80988 6.2059,-1.47731 10.39747,-2.50218 3.25567,0.21333 3.11279,-3.72242 3.33145,-5.97707 0.83274,-2.47552 0.57365,-5.12304 1.15467,-7.64802 -0.0677,-2.06451 0.60275,-2.48373 0.95372,-4.45537 -0.98239,-1.85286 -3.55831,-0.99017 -5.28323,-1.66301 -3.95805,-0.12197 -7.88205,-1.02306 -11.49864,-2.63445 -2.38038,-1.01808 -4.89741,-1.65289 -7.44001,-2.06485 -3.14331,-0.9275 -6.02043,-2.62487 -9.23992,-3.31488 -1.8065,-1.74445 -5.47318,-2.21688 -6.34769,-4.45017 z"
       id="path1832"
       inkscape:connector-curvature="0"
       sodipodi:nodetypes="ccccccccccccccccc" />
    <path
       sodipodi:nodetypes="cc"
       inkscape:connector-curvature="0"
       id="path1834"
       d="m 519.00253,531.27115 c -2.74507,-4.30146 -2.86373,-5.15037 -4.23199,-7.55182"
       style="fill:none;stroke:#000000;stroke-width:1.2;stroke-miterlimit:3;stroke-dasharray:none;stroke-opacity:1" />
    <path
       style="fill:#ffffff;fill-opacity:1;stroke:#000000;stroke-width:1.2;stroke-miterlimit:3;stroke-dasharray:none;stroke-opacity:1"
       d="m 493.91216,498.60943 c 3.87681,-3.1735 -1.61989,-6.14345 -3.62504,-8.46017 -2.96981,-2.93559 -5.04861,-6.7766 -8.2299,-9.4413 -3.50686,0.034 -5.15907,4.33312 -7.6251,6.32865 -3.04554,4.01725 -7.63569,6.33763 -11.01218,10.02759 -2.80556,2.71605 -6.55587,4.22255 -10.02074,5.85836 -1.99464,2.49233 2.93128,5.06916 3.79725,7.066 7.52515,8.26091 12.59893,12.34204 17.29229,16.30408 1.82822,-3.09823 4.25709,-5.97302 6.69781,-10.03303 3.03691,-5.57489 6.07614,-6.74178 7.52725,-9.97019 2.32041,-2.81553 3.18715,-5.38656 5.19841,-7.67999 z"
       id="path1828"
       inkscape:connector-curvature="0"
       sodipodi:nodetypes="cccccccccccc" />
  </g>
</svg>
