<?xml version="1.0" encoding="UTF-8" standalone="no"?>
<!-- Created with Inkscape (http://www.inkscape.org/) -->

<svg
   xmlns:dc="http://purl.org/dc/elements/1.1/"
   xmlns:cc="http://creativecommons.org/ns#"
   xmlns:rdf="http://www.w3.org/1999/02/22-rdf-syntax-ns#"
   xmlns:svg="http://www.w3.org/2000/svg"
   xmlns="http://www.w3.org/2000/svg"
   xmlns:sodipodi="http://sodipodi.sourceforge.net/DTD/sodipodi-0.dtd"
   xmlns:inkscape="http://www.inkscape.org/namespaces/inkscape"
   width="512"
   height="512"
   id="svg2"
   version="1.1"
   inkscape:version="0.48.4 r9939"
   sodipodi:docname="hyperlink.svg"
   inkscape:export-filename="C:\Documents and Settings\bstawarz\Bureau\Projects\Projet Site\v1.0\arrow.png"
   inkscape:export-xdpi="90"
   inkscape:export-ydpi="90">
  <defs
     id="defs4" />
  <sodipodi:namedview
     id="base"
     pagecolor="#ffffff"
     bordercolor="#666666"
     borderopacity="1.0"
     inkscape:pageopacity="0.0"
     inkscape:pageshadow="2"
     inkscape:zoom="0.49497475"
     inkscape:cx="-26.55864"
     inkscape:cy="123.11958"
     inkscape:document-units="px"
     inkscape:current-layer="layer1"
     showgrid="false"
     inkscape:window-width="986"
     inkscape:window-height="626"
     inkscape:window-x="628"
     inkscape:window-y="354"
     inkscape:window-maximized="0" />
  <metadata
     id="metadata7">
    <rdf:RDF>
      <cc:Work
         rdf:about="">
        <dc:format>image/svg+xml</dc:format>
        <dc:type
           rdf:resource="http://purl.org/dc/dcmitype/StillImage" />
        <dc:title />
      </cc:Work>
    </rdf:RDF>
  </metadata>
  <g
     inkscape:label="Calque 1"
     inkscape:groupmode="layer"
     id="layer1"
     transform="translate(0,-540.3622)">
    <path
       style="font-size:20px;font-style:normal;font-variant:normal;font-weight:normal;font-stretch:normal;text-align:start;line-height:125%;letter-spacing:0px;word-spacing:0px;writing-mode:lr-tb;text-anchor:start;fill:#222222;fill-opacity:1;stroke:none;font-family:Open Sans;-inkscape-font-specification:Sans"
       d="M 268.25,587.46875 C 202.07271,587.22346 134.13236,616.20683 95.355313,670.7818 55.001423,726.7481 44.829251,800.6318 58.1875,867.375 c 9.382704,44.54739 35.437139,86.64762 75.32354,109.92523 45.4967,27.51397 100.97264,31.63267 152.82459,25.69757 26.0239,-3.15483 51.64367,-10.10748 75.44562,-20.9978 0,-16.44792 0,-32.89583 0,-49.34375 -53.49304,22.17972 -114.64784,32.98559 -171.5,17.0625 -39.94348,-11.25779 -72.40966,-45.68697 -81.19516,-86.24748 -10.487711,-41.28869 -7.93983,-85.68842 5.35141,-125.97127 14.23398,-40.2569 45.09704,-75.08364 85.62199,-89.731 40.43672,-15.82886 86.88982,-17.27869 128.15926,-3.61275 36.7817,13.49129 66.7559,45.24388 75.93341,83.30457 9.54067,34.83642 8.44188,73.3215 -5.03471,106.8558 C 393.17574,848.44671 379.74721,862.85844 363,859.625 353.73359,858.13152 346.49811,850.27452 345.59375,841 c -4.94341,-23.36536 1.12685,-47.25072 0.73504,-70.8679 1.27411,-23.88843 2.54332,-47.7772 3.85871,-71.66335 -37.70777,-11.29051 -78.43861,-18.55229 -117.34375,-9.4375 -39.39013,10.7982 -69.60441,46.24428 -76.19652,86.40029 -5.75628,29.89704 -3.25566,62.18919 10.57152,89.38096 12.78574,23.30764 37.5354,39.89919 64.3714,40.92855 29.60853,2.77942 61.14898,-9.58113 77.97235,-34.5848 10.95331,24.99938 40.26546,39.21974 66.90625,34.15625 31.78087,-4.36077 57.42611,-29.23153 68.625,-58.40625 18.51498,-43.25247 17.67975,-93.05056 4.84375,-137.75 -15.30557,-49.33572 -53.39403,-91.55073 -102.55949,-108.731 -25.18214,-9.4745 -52.21803,-13.48546 -79.12801,-12.9565 z M 265.125,730.875 c 10.46494,-0.0336 20.97157,0.81706 31.125,3.03125 -2.97442,34.08456 0.67166,69.77271 -12.42993,102.05911 -6.27049,13.63637 -19.97633,24.23707 -35.25757,24.03464 -15.995,1.56795 -33.76294,-7.83211 -37.49927,-24.32516 -7.14724,-21.88484 -5.03807,-46.1075 1.49927,-67.83109 7.3263,-19.95646 25.97082,-36.49777 47.9375,-36.71875 1.5378,-0.1332 3.08168,-0.21763 4.625,-0.25 z"
       id="text2997"
       inkscape:connector-curvature="0" />
  </g>
</svg>
